G04 #@! TF.FileFunction,Soldermask,Bot*
%FSLAX46Y46*%
G04 Gerber Fmt 4.6, Leading zero omitted, Abs format (unit mm)*
G04 Created by KiCad (PCBNEW 4.0.1-4.201602120846+6195~38~ubuntu15.10.1-stable) date Sun 21 Feb 2016 15:56:16 GMT*
%MOMM*%
G01*
G04 APERTURE LIST*
%ADD10C,0.100000*%
%ADD11C,1.524000*%
%ADD12C,3.000000*%
%ADD13R,2.032000X1.727200*%
%ADD14O,2.032000X1.727200*%
%ADD15R,1.727200X1.727200*%
%ADD16O,1.727200X1.727200*%
%ADD17R,1.200000X1.200000*%
%ADD18O,1.200000X1.200000*%
%ADD19C,1.200000*%
G04 APERTURE END LIST*
D10*
D11*
X179600000Y-80460000D03*
X177600000Y-80460000D03*
X175600000Y-80460000D03*
X173600000Y-80460000D03*
X179600000Y-66460000D03*
X177600000Y-66460000D03*
X175600000Y-66460000D03*
X173600000Y-66460000D03*
X179600000Y-59460000D03*
X177600000Y-59460000D03*
X175600000Y-59460000D03*
X173600000Y-59460000D03*
X131400000Y-87460000D03*
X129400000Y-87460000D03*
X127400000Y-87460000D03*
X125400000Y-87460000D03*
X111400000Y-66460000D03*
X109400000Y-66460000D03*
X107400000Y-66460000D03*
X105400000Y-66460000D03*
X179600000Y-73460000D03*
X177600000Y-73460000D03*
X175600000Y-73460000D03*
X173600000Y-73460000D03*
X111400000Y-80460000D03*
X109400000Y-80460000D03*
X107400000Y-80460000D03*
X105400000Y-80460000D03*
X111400000Y-73460000D03*
X109400000Y-73460000D03*
X107400000Y-73460000D03*
X105400000Y-73460000D03*
X159600000Y-87460000D03*
X157600000Y-87460000D03*
X155600000Y-87460000D03*
X153600000Y-87460000D03*
X131400000Y-80460000D03*
X129400000Y-80460000D03*
X127400000Y-80460000D03*
X125400000Y-80460000D03*
D12*
X181000000Y-85500000D03*
X104000000Y-85500000D03*
X181000000Y-54000000D03*
D13*
X118370000Y-63360000D03*
D14*
X118370000Y-65900000D03*
X118370000Y-68440000D03*
X118370000Y-70980000D03*
X118370000Y-73520000D03*
X118370000Y-76060000D03*
X118370000Y-78600000D03*
X118370000Y-81140000D03*
D13*
X118370000Y-86220000D03*
D14*
X118370000Y-88760000D03*
X118370000Y-91300000D03*
X118370000Y-93840000D03*
X118370000Y-96380000D03*
X118370000Y-98920000D03*
D15*
X146310000Y-99047000D03*
D16*
X146310000Y-101587000D03*
X143770000Y-99047000D03*
X143770000Y-101587000D03*
X141230000Y-99047000D03*
X141230000Y-101587000D03*
D13*
X166630000Y-77076000D03*
D14*
X166630000Y-74536000D03*
X166630000Y-71996000D03*
X166630000Y-69456000D03*
X166630000Y-66916000D03*
X166630000Y-64376000D03*
X166630000Y-61836000D03*
X166630000Y-59296000D03*
X166630000Y-56756000D03*
X166630000Y-54216000D03*
D13*
X166630000Y-98920000D03*
D14*
X166630000Y-96380000D03*
X166630000Y-93840000D03*
X166630000Y-91300000D03*
X166630000Y-88760000D03*
X166630000Y-86220000D03*
X166630000Y-83680000D03*
X166630000Y-81140000D03*
D12*
X104000000Y-54000000D03*
D15*
X113000000Y-86000000D03*
D16*
X113000000Y-88540000D03*
X110460000Y-86000000D03*
X110460000Y-88540000D03*
X107920000Y-86000000D03*
X107920000Y-88540000D03*
D11*
X111400000Y-59460000D03*
X109400000Y-59460000D03*
X107400000Y-59460000D03*
X105400000Y-59460000D03*
X159600000Y-80460000D03*
X157600000Y-80460000D03*
X155600000Y-80460000D03*
X153600000Y-80460000D03*
X159600000Y-73460000D03*
X157600000Y-73460000D03*
X155600000Y-73460000D03*
X153600000Y-73460000D03*
X131400000Y-73460000D03*
X129400000Y-73460000D03*
X127400000Y-73460000D03*
X125400000Y-73460000D03*
D17*
X147990000Y-72500000D03*
D18*
X149990000Y-72500000D03*
D17*
X115000000Y-58000000D03*
D18*
X115000000Y-60000000D03*
D17*
X110000000Y-55000000D03*
D19*
X110000000Y-53000000D03*
X120000000Y-55000000D03*
X112000000Y-53000000D03*
X122000000Y-55000000D03*
X114000000Y-53000000D03*
X124000000Y-55000000D03*
X116000000Y-53000000D03*
X126000000Y-55000000D03*
X118000000Y-53000000D03*
X128000000Y-55000000D03*
X120000000Y-53000000D03*
X130000000Y-55000000D03*
X122000000Y-53000000D03*
X132000000Y-55000000D03*
X124000000Y-53000000D03*
X134000000Y-55000000D03*
X126000000Y-53000000D03*
X136000000Y-55000000D03*
X128000000Y-53000000D03*
X138000000Y-55000000D03*
X130000000Y-53000000D03*
X140000000Y-55000000D03*
X132000000Y-53000000D03*
X134000000Y-53000000D03*
X142000000Y-55000000D03*
X136000000Y-53000000D03*
X140000000Y-53000000D03*
X142000000Y-53000000D03*
X144000000Y-53000000D03*
X146000000Y-53000000D03*
X144000000Y-55000000D03*
X146000000Y-55000000D03*
X112000000Y-55000000D03*
X114000000Y-55000000D03*
X116000000Y-55000000D03*
X118000000Y-55000000D03*
X148000000Y-55000000D03*
X148000000Y-53000000D03*
X138000000Y-53000000D03*
M02*
