M48
;DRILL file {KiCad 4.0.1-4.201602120846+6195~38~ubuntu15.10.1-stable} date Sun 21 Feb 2016 15:56:19 GMT
;FORMAT={-:-/ absolute / inch / decimal}
FMAT,2
INCH,TZ
T1C0.016
T2C0.031
T3C0.040
T4C0.098
%
G90
G05
M72
T1
X4.122Y-3.622
X4.1378Y-3.0866
X4.2598Y-3.626
X4.3701Y-2.063
X4.4478Y-2.0669
X4.5492Y-4.0413
X4.6791Y-4.0394
X4.7059Y-3.9906
X4.7104Y-2.3905
X4.7312Y-2.8453
X4.7591Y-2.5921
X4.7598Y-2.4409
X4.7601Y-3.297
X4.7905Y-3.5642
X4.7939Y-3.2872
X4.802Y-2.5724
X4.8134Y-3.2522
X4.8189Y-3.6693
X4.8226Y-3.5626
X4.8289Y-3.2827
X4.8342Y-2.5748
X4.8381Y-2.6052
X4.8661Y-3.2402
X4.8819Y-2.5703
X4.8954Y-2.5977
X4.937Y-3.6299
X4.9447Y-3.4934
X4.9528Y-2.3736
X4.9646Y-2.4449
X4.9961Y-2.5709
X5.0079Y-2.634
X5.0152Y-2.3948
X5.0157Y-3.6299
X5.0512Y-2.7283
X5.0709Y-3.9921
X5.0941Y-3.6307
X5.1142Y-2.3583
X5.1177Y-2.7913
X5.1339Y-3.4722
X5.1339Y-3.1969
X5.1339Y-2.921
X5.1339Y-3.1389
X5.1359Y-2.8606
X5.1366Y-3.6295
X5.1573Y-2.3248
X5.1732Y-3.6299
X5.248Y-2.3543
X5.2513Y-2.708
X5.2701Y-3.7945
X5.273Y-2.9355
X5.2756Y-2.7874
X5.2835Y-3.4764
X5.2874Y-2.3189
X5.3031Y-2.9449
X5.3228Y-3.4134
X5.3271Y-2.9086
X5.3499Y-2.6593
X5.3973Y-2.7549
X5.3976Y-2.3935
X5.4252Y-3.0703
X5.4392Y-3.2951
X5.4528Y-3.0366
X5.46Y-3.1127
X5.463Y-3.3264
X5.4743Y-2.8628
X5.4961Y-2.9547
X5.5446Y-3.3562
X5.5457Y-3.3868
X5.5487Y-3.2874
X5.5634Y-2.8886
X5.6004Y-2.4772
X5.6068Y-2.6636
X5.6083Y-3.6732
X5.6111Y-3.3602
X5.623Y-3.2028
X5.6248Y-3.3059
X5.6512Y-3.2457
X5.6594Y-3.3701
X5.6811Y-3.5453
X5.6826Y-2.5544
X5.6907Y-2.3935
X5.6988Y-3.3681
X5.7122Y-3.0331
X5.7136Y-3.1004
X5.7272Y-3.2447
X5.7407Y-2.4672
X5.784Y-3.0717
X5.815Y-3.0819
X5.8359Y-3.1292
X5.8476Y-3.0873
X5.849Y-3.5156
X5.86Y-3.5501
X5.885Y-3.6009
X5.8912Y-3.72
X5.8976Y-3.8622
X5.8993Y-2.9855
X5.9087Y-2.2085
X5.9094Y-3.6445
X5.9154Y-2.374
X5.9154Y-3.7785
X5.9161Y-2.1166
X5.9248Y-3.0039
X5.9341Y-2.6949
X5.9368Y-3.6087
X5.937Y-3.1437
X5.9449Y-2.0433
X5.9646Y-3.2008
X5.9843Y-2.6772
X6.0039Y-3.2293
X6.0276Y-2.5413
X6.0638Y-2.6193
X6.0705Y-2.7978
X6.0799Y-3.6207
X6.0896Y-2.1476
X6.1112Y-2.8385
X6.1148Y-2.546
X6.122Y-2.4232
X6.126Y-3.6299
X6.1394Y-2.3331
X6.1408Y-2.5208
X6.1592Y-2.7114
X6.1807Y-2.3355
X6.2126Y-2.5472
X6.2186Y-2.7114
X6.2596Y-2.1489
X6.2686Y-2.7021
X6.2953Y-2.6585
X6.3268Y-2.7106
X6.3413Y-2.7503
X6.3657Y-2.7687
X6.3807Y-2.2728
X6.4667Y-2.3064
X6.7756Y-2.265
X6.811Y-2.1654
X6.8346Y-3.6299
X6.9134Y-3.6299
X6.9921Y-3.6299
X7.1496Y-3.6509
X7.1929Y-3.6614
X7.2028Y-3.4665
T2
X4.1496Y-2.3409
X4.1496Y-2.6165
X4.1496Y-2.8921
X4.1496Y-3.1677
X4.2283Y-2.3409
X4.2283Y-2.6165
X4.2283Y-2.8921
X4.2283Y-3.1677
X4.3071Y-2.3409
X4.3071Y-2.6165
X4.3071Y-2.8921
X4.3071Y-3.1677
X4.3307Y-2.0866
X4.3307Y-2.1654
X4.3858Y-2.3409
X4.3858Y-2.6165
X4.3858Y-2.8921
X4.3858Y-3.1677
X4.4094Y-2.0866
X4.4094Y-2.1654
X4.4882Y-2.0866
X4.4882Y-2.1654
X4.5276Y-2.2835
X4.5276Y-2.3622
X4.5669Y-2.0866
X4.5669Y-2.1654
X4.6457Y-2.0866
X4.6457Y-2.1654
X4.7244Y-2.0866
X4.7244Y-2.1654
X4.8031Y-2.0866
X4.8031Y-2.1654
X4.8819Y-2.0866
X4.8819Y-2.1654
X4.937Y-2.8921
X4.937Y-3.1677
X4.937Y-3.4433
X4.9606Y-2.0866
X4.9606Y-2.1654
X5.0157Y-2.8921
X5.0157Y-3.1677
X5.0157Y-3.4433
X5.0394Y-2.0866
X5.0394Y-2.1654
X5.0945Y-2.8921
X5.0945Y-3.1677
X5.0945Y-3.4433
X5.1181Y-2.0866
X5.1181Y-2.1654
X5.1732Y-2.8921
X5.1732Y-3.1677
X5.1732Y-3.4433
X5.1969Y-2.0866
X5.1969Y-2.1654
X5.2756Y-2.0866
X5.2756Y-2.1654
X5.3543Y-2.0866
X5.3543Y-2.1654
X5.4331Y-2.0866
X5.4331Y-2.1654
X5.5118Y-2.0866
X5.5118Y-2.1654
X5.5906Y-2.0866
X5.5906Y-2.1654
X5.6693Y-2.0866
X5.6693Y-2.1654
X5.748Y-2.0866
X5.748Y-2.1654
X5.8264Y-2.8543
X5.8268Y-2.0866
X5.8268Y-2.1654
X5.9051Y-2.8543
X6.0472Y-2.8921
X6.0472Y-3.1677
X6.0472Y-3.4433
X6.126Y-2.8921
X6.126Y-3.1677
X6.126Y-3.4433
X6.2047Y-2.8921
X6.2047Y-3.1677
X6.2047Y-3.4433
X6.2835Y-2.8921
X6.2835Y-3.1677
X6.2835Y-3.4433
X6.8346Y-2.3409
X6.8346Y-2.6165
X6.8346Y-2.8921
X6.8346Y-3.1677
X6.9134Y-2.3409
X6.9134Y-2.6165
X6.9134Y-2.8921
X6.9134Y-3.1677
X6.9921Y-2.3409
X6.9921Y-2.6165
X6.9921Y-2.8921
X6.9921Y-3.1677
X7.0709Y-2.3409
X7.0709Y-2.6165
X7.0709Y-2.8921
X7.0709Y-3.1677
T3
X4.2488Y-3.3858
X4.2488Y-3.4858
X4.3488Y-3.3858
X4.3488Y-3.4858
X4.4488Y-3.3858
X4.4488Y-3.4858
X4.6602Y-2.4945
X4.6602Y-2.5945
X4.6602Y-2.6945
X4.6602Y-2.7945
X4.6602Y-2.8945
X4.6602Y-2.9945
X4.6602Y-3.0945
X4.6602Y-3.1945
X4.6602Y-3.3945
X4.6602Y-3.4945
X4.6602Y-3.5945
X4.6602Y-3.6945
X4.6602Y-3.7945
X4.6602Y-3.8945
X5.5602Y-3.8995
X5.5602Y-3.9995
X5.6602Y-3.8995
X5.6602Y-3.9995
X5.7602Y-3.8995
X5.7602Y-3.9995
X6.5602Y-2.1345
X6.5602Y-2.2345
X6.5602Y-2.3345
X6.5602Y-2.4345
X6.5602Y-2.5345
X6.5602Y-2.6345
X6.5602Y-2.7345
X6.5602Y-2.8345
X6.5602Y-2.9345
X6.5602Y-3.0345
X6.5602Y-3.1945
X6.5602Y-3.2945
X6.5602Y-3.3945
X6.5602Y-3.4945
X6.5602Y-3.5945
X6.5602Y-3.6945
X6.5602Y-3.7945
X6.5602Y-3.8945
T4
X4.0945Y-2.126
X4.0945Y-3.3661
X7.126Y-2.126
X7.126Y-3.3661
T0
M30
