G04 #@! TF.FileFunction,Soldermask,Top*
%FSLAX46Y46*%
G04 Gerber Fmt 4.6, Leading zero omitted, Abs format (unit mm)*
G04 Created by KiCad (PCBNEW 4.0.1-4.201602120846+6195~38~ubuntu15.10.1-stable) date Sun 21 Feb 2016 15:56:16 GMT*
%MOMM*%
G01*
G04 APERTURE LIST*
%ADD10C,0.100000*%
%ADD11C,1.524000*%
%ADD12C,3.000000*%
%ADD13R,0.750000X0.800000*%
%ADD14R,0.800000X0.750000*%
%ADD15R,0.797560X0.797560*%
%ADD16R,0.550000X1.600000*%
%ADD17R,1.600000X0.550000*%
%ADD18R,2.032000X1.727200*%
%ADD19O,2.032000X1.727200*%
%ADD20R,1.727200X1.727200*%
%ADD21O,1.727200X1.727200*%
%ADD22R,0.900000X0.800000*%
%ADD23R,0.800000X0.900000*%
%ADD24R,1.619000X2.635000*%
%ADD25R,4.000000X2.600000*%
%ADD26R,0.400000X1.350000*%
%ADD27R,1.900000X1.300000*%
%ADD28R,1.900000X1.900000*%
%ADD29R,1.000000X1.250000*%
%ADD30R,1.700000X2.400000*%
%ADD31R,1.016000X1.200000*%
%ADD32R,1.010000X2.740000*%
%ADD33R,1.500000X3.000000*%
%ADD34R,0.400000X1.000000*%
%ADD35R,0.400000X1.200000*%
%ADD36R,1.200000X1.200000*%
%ADD37O,1.200000X1.200000*%
%ADD38C,1.200000*%
%ADD39R,1.250000X1.000000*%
%ADD40R,1.700000X0.800000*%
G04 APERTURE END LIST*
D10*
D11*
X179600000Y-80460000D03*
X177600000Y-80460000D03*
X175600000Y-80460000D03*
X173600000Y-80460000D03*
X179600000Y-66460000D03*
X177600000Y-66460000D03*
X175600000Y-66460000D03*
X173600000Y-66460000D03*
X179600000Y-59460000D03*
X177600000Y-59460000D03*
X175600000Y-59460000D03*
X173600000Y-59460000D03*
X131400000Y-87460000D03*
X129400000Y-87460000D03*
X127400000Y-87460000D03*
X125400000Y-87460000D03*
X111400000Y-66460000D03*
X109400000Y-66460000D03*
X107400000Y-66460000D03*
X105400000Y-66460000D03*
X179600000Y-73460000D03*
X177600000Y-73460000D03*
X175600000Y-73460000D03*
X173600000Y-73460000D03*
X111400000Y-80460000D03*
X109400000Y-80460000D03*
X107400000Y-80460000D03*
X105400000Y-80460000D03*
X111400000Y-73460000D03*
X109400000Y-73460000D03*
X107400000Y-73460000D03*
X105400000Y-73460000D03*
X159600000Y-87460000D03*
X157600000Y-87460000D03*
X155600000Y-87460000D03*
X153600000Y-87460000D03*
X131400000Y-80460000D03*
X129400000Y-80460000D03*
X127400000Y-80460000D03*
X125400000Y-80460000D03*
D12*
X181000000Y-85500000D03*
X104000000Y-85500000D03*
X181000000Y-54000000D03*
D13*
X128190000Y-59540000D03*
X128190000Y-61040000D03*
X143840000Y-59540000D03*
X143840000Y-61040000D03*
X154600000Y-56150000D03*
X154600000Y-57650000D03*
X159700000Y-56150000D03*
X159700000Y-57650000D03*
D14*
X160800000Y-60320000D03*
X159300000Y-60320000D03*
D13*
X128200000Y-64850000D03*
X128200000Y-63350000D03*
X143810000Y-62950000D03*
X143810000Y-64450000D03*
X142450000Y-90800000D03*
X142450000Y-92300000D03*
X145900000Y-77800000D03*
X145900000Y-76300000D03*
X144300000Y-77800000D03*
X144300000Y-76300000D03*
D14*
X148540000Y-94550000D03*
X147040000Y-94550000D03*
X144050000Y-94550000D03*
X145550000Y-94550000D03*
D15*
X148950000Y-101250700D03*
X148950000Y-102749300D03*
X182238200Y-89062500D03*
X183736800Y-89062500D03*
X182238200Y-90762500D03*
X183736800Y-90762500D03*
D16*
X141115000Y-88345000D03*
X141915000Y-88345000D03*
X142715000Y-88345000D03*
X143515000Y-88345000D03*
X144315000Y-88345000D03*
X145115000Y-88345000D03*
X145915000Y-88345000D03*
X146715000Y-88345000D03*
D17*
X148165000Y-86895000D03*
X148165000Y-86095000D03*
X148165000Y-85295000D03*
X148165000Y-84495000D03*
X148165000Y-83695000D03*
X148165000Y-82895000D03*
X148165000Y-82095000D03*
X148165000Y-81295000D03*
D16*
X146715000Y-79845000D03*
X145915000Y-79845000D03*
X145115000Y-79845000D03*
X144315000Y-79845000D03*
X143515000Y-79845000D03*
X142715000Y-79845000D03*
X141915000Y-79845000D03*
X141115000Y-79845000D03*
D17*
X139665000Y-81295000D03*
X139665000Y-82095000D03*
X139665000Y-82895000D03*
X139665000Y-83695000D03*
X139665000Y-84495000D03*
X139665000Y-85295000D03*
X139665000Y-86095000D03*
X139665000Y-86895000D03*
D18*
X118370000Y-63360000D03*
D19*
X118370000Y-65900000D03*
X118370000Y-68440000D03*
X118370000Y-70980000D03*
X118370000Y-73520000D03*
X118370000Y-76060000D03*
X118370000Y-78600000D03*
X118370000Y-81140000D03*
D18*
X118370000Y-86220000D03*
D19*
X118370000Y-88760000D03*
X118370000Y-91300000D03*
X118370000Y-93840000D03*
X118370000Y-96380000D03*
X118370000Y-98920000D03*
D20*
X146310000Y-99047000D03*
D21*
X146310000Y-101587000D03*
X143770000Y-99047000D03*
X143770000Y-101587000D03*
X141230000Y-99047000D03*
X141230000Y-101587000D03*
D18*
X166630000Y-77076000D03*
D19*
X166630000Y-74536000D03*
X166630000Y-71996000D03*
X166630000Y-69456000D03*
X166630000Y-66916000D03*
X166630000Y-64376000D03*
X166630000Y-61836000D03*
X166630000Y-59296000D03*
X166630000Y-56756000D03*
X166630000Y-54216000D03*
D18*
X166630000Y-98920000D03*
D19*
X166630000Y-96380000D03*
X166630000Y-93840000D03*
X166630000Y-91300000D03*
X166630000Y-88760000D03*
X166630000Y-86220000D03*
X166630000Y-83680000D03*
X166630000Y-81140000D03*
D22*
X158000000Y-57615000D03*
X158000000Y-56185000D03*
X156300000Y-57615000D03*
X156300000Y-56185000D03*
D23*
X154905000Y-67510000D03*
X156335000Y-67510000D03*
D22*
X137000000Y-76510000D03*
X137000000Y-77940000D03*
X148950000Y-98285000D03*
X148950000Y-99715000D03*
X131600000Y-57685000D03*
X131600000Y-59115000D03*
D23*
X179472500Y-90762500D03*
X180902500Y-90762500D03*
X179472500Y-89062500D03*
X180902500Y-89062500D03*
D24*
X150561000Y-61831000D03*
X148250000Y-61831000D03*
X145939000Y-61831000D03*
D25*
X148250000Y-68029000D03*
D12*
X104000000Y-54000000D03*
D26*
X156500000Y-54581000D03*
X157800000Y-54581000D03*
X157150000Y-54581000D03*
X158450000Y-54581000D03*
X155850000Y-54581000D03*
D27*
X153200000Y-51906000D03*
D28*
X155950000Y-51906000D03*
X158350000Y-51906000D03*
D27*
X161100000Y-51906000D03*
D29*
X146050000Y-57240000D03*
X148050000Y-57240000D03*
X148250000Y-59340000D03*
X150250000Y-59340000D03*
D30*
X148150000Y-91850000D03*
X144450000Y-91850000D03*
D13*
X142250000Y-77825000D03*
X142250000Y-76325000D03*
D22*
X142250000Y-74840000D03*
X142250000Y-73410000D03*
D23*
X138885000Y-74075000D03*
X140315000Y-74075000D03*
X159055000Y-67510000D03*
X157625000Y-67510000D03*
D22*
X152050000Y-56210000D03*
X152050000Y-57640000D03*
D29*
X162100000Y-65600000D03*
X160100000Y-65600000D03*
D31*
X160140000Y-63900000D03*
X162040000Y-63900000D03*
X161090000Y-61780000D03*
D23*
X137615000Y-74080000D03*
X136185000Y-74080000D03*
D31*
X140600000Y-75865000D03*
X138700000Y-75865000D03*
X139650000Y-77985000D03*
D32*
X153600000Y-93900000D03*
X155600000Y-93900000D03*
X157600000Y-93900000D03*
X159600000Y-93900000D03*
D33*
X151200000Y-101400000D03*
X162000000Y-101400000D03*
D32*
X125400000Y-93900000D03*
X127400000Y-93900000D03*
X129400000Y-93900000D03*
X131400000Y-93900000D03*
D33*
X123000000Y-101400000D03*
X133800000Y-101400000D03*
D34*
X126715000Y-58600000D03*
X126065000Y-58600000D03*
X125415000Y-58600000D03*
X124765000Y-58600000D03*
X124115000Y-58600000D03*
X123465000Y-58600000D03*
X122815000Y-58600000D03*
X122165000Y-58600000D03*
X121515000Y-58600000D03*
X120865000Y-58600000D03*
X120865000Y-64400000D03*
X121515000Y-64400000D03*
X122165000Y-64400000D03*
X122815000Y-64400000D03*
X123465000Y-64400000D03*
X124115000Y-64400000D03*
X124765000Y-64400000D03*
X125415000Y-64400000D03*
X126065000Y-64400000D03*
X126715000Y-64400000D03*
X142345000Y-58600000D03*
X141695000Y-58600000D03*
X141045000Y-58600000D03*
X140395000Y-58600000D03*
X139745000Y-58600000D03*
X139095000Y-58600000D03*
X138445000Y-58600000D03*
X137795000Y-58600000D03*
X137145000Y-58600000D03*
X136495000Y-58600000D03*
X136495000Y-64400000D03*
X137145000Y-64400000D03*
X137795000Y-64400000D03*
X138445000Y-64400000D03*
X139095000Y-64400000D03*
X139745000Y-64400000D03*
X140395000Y-64400000D03*
X141045000Y-64400000D03*
X141695000Y-64400000D03*
X142345000Y-64400000D03*
D35*
X153377500Y-65600000D03*
X154012500Y-65600000D03*
X154647500Y-65600000D03*
X155282500Y-65600000D03*
X155917500Y-65600000D03*
X156552500Y-65600000D03*
X157187500Y-65600000D03*
X157822500Y-65600000D03*
X157822500Y-60400000D03*
X157187500Y-60400000D03*
X156552500Y-60400000D03*
X155917500Y-60400000D03*
X155282500Y-60400000D03*
X154647500Y-60400000D03*
X154012500Y-60400000D03*
X153377500Y-60400000D03*
D32*
X105400000Y-93900000D03*
X107400000Y-93900000D03*
X109400000Y-93900000D03*
X111400000Y-93900000D03*
D33*
X103000000Y-101400000D03*
X113800000Y-101400000D03*
D32*
X173600000Y-93900000D03*
X175600000Y-93900000D03*
X177600000Y-93900000D03*
X179600000Y-93900000D03*
D33*
X171200000Y-101400000D03*
X182000000Y-101400000D03*
D22*
X129900000Y-57685000D03*
X129900000Y-59115000D03*
D20*
X113000000Y-86000000D03*
D21*
X113000000Y-88540000D03*
X110460000Y-86000000D03*
X110460000Y-88540000D03*
X107920000Y-86000000D03*
X107920000Y-88540000D03*
D11*
X111400000Y-59460000D03*
X109400000Y-59460000D03*
X107400000Y-59460000D03*
X105400000Y-59460000D03*
X159600000Y-80460000D03*
X157600000Y-80460000D03*
X155600000Y-80460000D03*
X153600000Y-80460000D03*
X159600000Y-73460000D03*
X157600000Y-73460000D03*
X155600000Y-73460000D03*
X153600000Y-73460000D03*
X131400000Y-73460000D03*
X129400000Y-73460000D03*
X127400000Y-73460000D03*
X125400000Y-73460000D03*
D36*
X147990000Y-72500000D03*
D37*
X149990000Y-72500000D03*
D36*
X115000000Y-58000000D03*
D37*
X115000000Y-60000000D03*
D36*
X110000000Y-55000000D03*
D38*
X110000000Y-53000000D03*
X120000000Y-55000000D03*
X112000000Y-53000000D03*
X122000000Y-55000000D03*
X114000000Y-53000000D03*
X124000000Y-55000000D03*
X116000000Y-53000000D03*
X126000000Y-55000000D03*
X118000000Y-53000000D03*
X128000000Y-55000000D03*
X120000000Y-53000000D03*
X130000000Y-55000000D03*
X122000000Y-53000000D03*
X132000000Y-55000000D03*
X124000000Y-53000000D03*
X134000000Y-55000000D03*
X126000000Y-53000000D03*
X136000000Y-55000000D03*
X128000000Y-53000000D03*
X138000000Y-55000000D03*
X130000000Y-53000000D03*
X140000000Y-55000000D03*
X132000000Y-53000000D03*
X134000000Y-53000000D03*
X142000000Y-55000000D03*
X136000000Y-53000000D03*
X140000000Y-53000000D03*
X142000000Y-53000000D03*
X144000000Y-53000000D03*
X146000000Y-53000000D03*
X144000000Y-55000000D03*
X146000000Y-55000000D03*
X112000000Y-55000000D03*
X114000000Y-55000000D03*
X116000000Y-55000000D03*
X118000000Y-55000000D03*
X148000000Y-55000000D03*
X148000000Y-53000000D03*
X138000000Y-53000000D03*
D39*
X150130000Y-55250000D03*
X150130000Y-57250000D03*
D22*
X135000000Y-57685000D03*
X135000000Y-59115000D03*
X133300000Y-57685000D03*
X133300000Y-59115000D03*
D29*
X145360000Y-67980000D03*
X143360000Y-67980000D03*
D23*
X119435000Y-102650000D03*
X120865000Y-102650000D03*
X116085000Y-102650000D03*
X117515000Y-102650000D03*
D39*
X163270000Y-56880000D03*
X163270000Y-54880000D03*
D13*
X161350000Y-56160000D03*
X161350000Y-57660000D03*
D40*
X177000000Y-55700000D03*
X177000000Y-52300000D03*
X173000000Y-55700000D03*
X173000000Y-52300000D03*
D31*
X135050000Y-60740000D03*
X133150000Y-60740000D03*
X134100000Y-62860000D03*
X131650000Y-60740000D03*
X129750000Y-60740000D03*
X130700000Y-62860000D03*
X135050000Y-64440000D03*
X133150000Y-64440000D03*
X134100000Y-66560000D03*
X131650000Y-64440000D03*
X129750000Y-64440000D03*
X130700000Y-66560000D03*
D23*
X129670000Y-68100000D03*
X131100000Y-68100000D03*
D22*
X127700000Y-68315000D03*
X127700000Y-66885000D03*
D23*
X135315000Y-68100000D03*
X133885000Y-68100000D03*
D22*
X136800000Y-68315000D03*
X136800000Y-66885000D03*
M02*
